<svg id="Layer_1" data-name="Layer 1" xmlns="http://www.w3.org/2000/svg" viewBox="0 0 368.81 64.68"><defs><style>.cls-1{fill:#fff8f1;}</style></defs><path class="cls-1" d="M46.12,34q-.24-3-.5-6.07t-.54-6c-.17-1.9-.34-3.58-.5-5s-.31-2.52-.46-3.19a2.73,2.73,0,0,0-1.67-2,8.81,8.81,0,0,0-3.7-.67,11.85,11.85,0,0,0-2.43.24,6.7,6.7,0,0,0-1.89.67c-.74,2-1.64,4.47-2.69,7.46s-2.07,6-3.06,9.16h-.27c-.49-1.39-1-2.94-1.62-4.66S25.61,20.5,25,18.81s-1.17-3.17-1.7-4.44a4.42,4.42,0,0,0-2.1-2.53,8.25,8.25,0,0,0-3.86-.78,7.73,7.73,0,0,0-3.52.67,4.56,4.56,0,0,0-1.7,1.3q-.22,2.78-.46,6t-.42,6.63c-.13,2.24-.25,4.36-.38,6.36s-.23,3.79-.31,5.33-.14,2.71-.14,3.49a2.54,2.54,0,0,0,1.15,2.39,6,6,0,0,0,3.17.7,8.68,8.68,0,0,0,1.94-.22c.66-.14,1.18-.26,1.57-.37q.21-3.24.32-6c.07-1.81.12-3.6.16-5.36s.09-3.56.16-5.4.16-3.89.27-6.13h.26c.46,1.64,1.11,3.57,1.95,5.81s1.85,5,3.06,8.41a2.2,2.2,0,0,0,1.44,1.44,7.68,7.68,0,0,0,2.77.43,7.43,7.43,0,0,0,2.26-.32,4.7,4.7,0,0,0,1.57-.8q1.86-5.49,3.12-9t1.94-5.78h.27c.07,1.49.13,3.27.18,5.35s.14,4.37.24,6.87.25,5.14.43,7.91a2.71,2.71,0,0,0,1.3,2.45,6.19,6.19,0,0,0,2.91.64,8.62,8.62,0,0,0,2.21-.24A6.64,6.64,0,0,0,46.73,43c0-.92-.1-2.17-.21-3.73S46.28,36,46.12,34Z"/><path class="cls-1" d="M71.85,18.87a14.26,14.26,0,0,0-7.06-1.68,14.54,14.54,0,0,0-7.11,1.68,11.94,11.94,0,0,0-4.77,4.71,14.51,14.51,0,0,0-1.7,7.19A14.9,14.9,0,0,0,52.89,38a11.44,11.44,0,0,0,4.71,4.69,14.93,14.93,0,0,0,7.14,1.62,14.7,14.7,0,0,0,7.13-1.65A11.57,11.57,0,0,0,76.59,38a14.92,14.92,0,0,0,1.67-7.22,14.55,14.55,0,0,0-1.7-7.16A11.93,11.93,0,0,0,71.85,18.87ZM68.73,36.2a5.14,5.14,0,0,1-8,0,8.88,8.88,0,0,1-1.44-5.46,8.77,8.77,0,0,1,1.47-5.43,5.07,5.07,0,0,1,8,0,8.94,8.94,0,0,1,1.44,5.41A8.9,8.9,0,0,1,68.73,36.2Z"/><path class="cls-1" d="M104.52,19.72c-2.1-1.69-5.06-2.53-8.9-2.53a21.08,21.08,0,0,0-5.85.77A15.2,15.2,0,0,0,85.4,19.9a5.48,5.48,0,0,0-1.63,1.58,4,4,0,0,0-.56,2.21V40.25a3.46,3.46,0,0,0,1,2.88,5.44,5.44,0,0,0,3.28.79,15.07,15.07,0,0,0,2.08-.13,11.92,11.92,0,0,0,1.49-.29V24.59a11.66,11.66,0,0,1,2-.82,8.29,8.29,0,0,1,2.45-.35,4.63,4.63,0,0,1,3,.93,3.53,3.53,0,0,1,1.14,2.9v13a3.41,3.41,0,0,0,1.07,2.88,5.53,5.53,0,0,0,3.3.79,15,15,0,0,0,2.08-.13,11.92,11.92,0,0,0,1.49-.29V27A8.81,8.81,0,0,0,104.52,19.72Z"/><path class="cls-1" d="M132,18.65a13.52,13.52,0,0,0-6.42-1.46,14.47,14.47,0,0,0-4.82.8,12.25,12.25,0,0,0-4.16,2.42,11.66,11.66,0,0,0-2.93,4.13,14.84,14.84,0,0,0-1.09,5.91,14.64,14.64,0,0,0,1.87,7.72,11.67,11.67,0,0,0,5.14,4.64A17.05,17.05,0,0,0,127,44.35a22,22,0,0,0,5-.53,8.37,8.37,0,0,0,3.46-1.6,3.37,3.37,0,0,0,1.25-2.66,3.44,3.44,0,0,0-.51-1.81,3.72,3.72,0,0,0-1.3-1.34,17.32,17.32,0,0,1-3.2,1.34,13.68,13.68,0,0,1-4.2.64,8.9,8.9,0,0,1-4.8-1.26,5.2,5.2,0,0,1-2.24-3.07l14-2.07a4.36,4.36,0,0,0,2.5-1.06,3.25,3.25,0,0,0,.91-2.5,10.83,10.83,0,0,0-1.55-5.81A11.08,11.08,0,0,0,132,18.65ZM120,28.73a6.35,6.35,0,0,1,1.67-4.06,5.36,5.36,0,0,1,4-1.62,4.46,4.46,0,0,1,3.46,1.27,4.56,4.56,0,0,1,1.28,2.77Z"/><path class="cls-1" d="M165.37,18.17a5.44,5.44,0,0,0-2.85-.72,6.45,6.45,0,0,0-1.76.24,9,9,0,0,0-1.6.62c-.39,2-.85,4.05-1.38,6.2s-1.11,4.24-1.73,6.26-1.24,3.83-1.84,5.43H154q-1.28-3.89-2.5-7.72c-.82-2.56-1.63-5.13-2.45-7.72a4.32,4.32,0,0,0-1.6-2.61,4.89,4.89,0,0,0-2.71-.7,5.54,5.54,0,0,0-2.37.51,6.22,6.22,0,0,0-1.79,1.2q1.23,4.47,2.29,7.88c.71,2.27,1.4,4.24,2,5.91s1.27,3.09,1.84,4.26a11.71,11.71,0,0,0,2.13,3.41,4.57,4.57,0,0,0,1.87,1.17,29.32,29.32,0,0,1-2,2.8,33.54,33.54,0,0,1-2.35,2.66A29.49,29.49,0,0,1,144,49.46a5,5,0,0,0,1.51,3,4.47,4.47,0,0,0,3.17,1.17,6.9,6.9,0,0,0,4.82-2.48,38.09,38.09,0,0,0,5.3-7.48c.75-1.32,1.48-2.79,2.21-4.42s1.43-3.33,2.11-5.09,1.26-3.48,1.75-5.16.9-3.26,1.2-4.72a18.71,18.71,0,0,0,.45-3.67A2.62,2.62,0,0,0,165.37,18.17Z"/><path class="cls-1" d="M206.75,34q-.24-3-.51-6.07t-.53-6q-.27-2.85-.51-5c-.16-1.45-.31-2.52-.45-3.19a2.77,2.77,0,0,0-1.68-2,8.77,8.77,0,0,0-3.7-.67,11.75,11.75,0,0,0-2.42.24,6.48,6.48,0,0,0-1.89.67c-.75,2-1.65,4.47-2.69,7.46s-2.07,6-3.07,9.16H189q-.75-2.09-1.63-4.66c-.58-1.73-1.18-3.43-1.78-5.12s-1.17-3.17-1.7-4.44a4.4,4.4,0,0,0-2.11-2.53,8.22,8.22,0,0,0-3.86-.78,7.71,7.71,0,0,0-3.51.67,4.53,4.53,0,0,0-1.71,1.3q-.21,2.78-.45,6t-.43,6.63c-.12,2.24-.25,4.36-.37,6.36s-.23,3.79-.32,5.33-.13,2.71-.13,3.49a2.56,2.56,0,0,0,1.14,2.39,6,6,0,0,0,3.17.7,8.62,8.62,0,0,0,1.94-.22c.66-.14,1.18-.26,1.58-.37.14-2.16.24-4.15.32-6s.12-3.6.15-5.36.09-3.56.17-5.4.15-3.89.26-6.13H180c.46,1.64,1.11,3.57,1.94,5.81s1.86,5,3.06,8.41a2.25,2.25,0,0,0,1.44,1.44,7.71,7.71,0,0,0,2.77.43,7.38,7.38,0,0,0,2.26-.32,4.86,4.86,0,0,0,1.58-.8q1.86-5.49,3.11-9t2-5.78h.26c.07,1.49.13,3.27.19,5.35s.13,4.37.24,6.87.25,5.14.42,7.91a2.71,2.71,0,0,0,1.31,2.45,6.15,6.15,0,0,0,2.9.64,8.51,8.51,0,0,0,2.21-.24,6.56,6.56,0,0,0,1.68-.72c0-.92-.11-2.17-.21-3.73S206.91,36,206.75,34Z"/><path class="cls-1" d="M232.28,19.51c-2.2-1.55-5.14-2.32-8.84-2.32a28.75,28.75,0,0,0-4,.29,15.47,15.47,0,0,0-3.6.93,3.41,3.41,0,0,0-2.45,3.25,4,4,0,0,0,.45,1.84,3.27,3.27,0,0,0,1.1,1.3,25.06,25.06,0,0,1,3.48-1.11,16.53,16.53,0,0,1,4-.48,8.17,8.17,0,0,1,4,.8,2.76,2.76,0,0,1,1.41,2.61v.63l-7.08.75a11.62,11.62,0,0,0-6.66,2.37,7,7,0,0,0-2.23,5.57,7.09,7.09,0,0,0,3.22,6.33,15.49,15.49,0,0,0,8.65,2.13,23.25,23.25,0,0,0,5.41-.56,13.89,13.89,0,0,0,4-1.51,5.9,5.9,0,0,0,1.75-1.42,3.23,3.23,0,0,0,.7-2.15V26.67Q235.59,21.83,232.28,19.51Zm-4.36,18.18a5.7,5.7,0,0,1-1.73.56,12.36,12.36,0,0,1-2.43.24,5.45,5.45,0,0,1-3.25-.77,2.46,2.46,0,0,1-1-2,2.11,2.11,0,0,1,1.07-1.92,6.38,6.38,0,0,1,2.87-.74l4.48-.43Z"/><path class="cls-1" d="M253.48,27.84l-2.13-.53a5.24,5.24,0,0,1-2.16-.83,1.49,1.49,0,0,1-.61-1.2,1.66,1.66,0,0,1,1.07-1.57,7.22,7.22,0,0,1,3-.5,14.8,14.8,0,0,1,2.63.26,16.78,16.78,0,0,1,2.61.7,9.7,9.7,0,0,1,1.79.79,4,4,0,0,0,1.12-1.33,3.93,3.93,0,0,0,.42-1.86A3.26,3.26,0,0,0,260,19.19a7.94,7.94,0,0,0-3.33-1.55,19.82,19.82,0,0,0-4.66-.5c-3.41,0-6.12.73-8.12,2.21a7,7,0,0,0-3,5.93,6.64,6.64,0,0,0,2.1,5.2,13.69,13.69,0,0,0,6.37,2.79l2.23.53a5.07,5.07,0,0,1,2.29.83,1.86,1.86,0,0,1,.7,1.52q0,2.24-3.89,2.24a13.43,13.43,0,0,1-4.56-.72,22.81,22.81,0,0,1-3.48-1.57,3.66,3.66,0,0,0-1.23,1.3,3.8,3.8,0,0,0-.48,1.94q0,2.5,2.82,3.79a17.57,17.57,0,0,0,7.19,1.27c3.73,0,6.57-.73,8.53-2.21a7.2,7.2,0,0,0,2.92-6.09,6.89,6.89,0,0,0-2.07-5.2Q258.22,28.91,253.48,27.84Z"/><path class="cls-1" d="M275.16,29.49V24.64h5.53a2.57,2.57,0,0,0,1.95-.74,3.28,3.28,0,0,0,.72-2.34,5.46,5.46,0,0,0-.27-1.76,6.22,6.22,0,0,0-.53-1.23h-7.4V14.9a3.54,3.54,0,0,0-1-2.93,5.36,5.36,0,0,0-3.3-.8,10.11,10.11,0,0,0-2,.19c-.64.12-1.14.24-1.49.34v24q0,4.59,2.47,6.61a10.7,10.7,0,0,0,6.95,2c2.35,0,4-.39,5-1.17a3.65,3.65,0,0,0,1.49-3,3.4,3.4,0,0,0-.35-1.6,5.16,5.16,0,0,0-.77-1.17,8.58,8.58,0,0,1-1.57.45,9.23,9.23,0,0,1-1.73.19,4.54,4.54,0,0,1-2.72-.7,2.52,2.52,0,0,1-.95-2.18v-5.7Z"/><path class="cls-1" d="M305.49,18.65a13.52,13.52,0,0,0-6.42-1.46,14.47,14.47,0,0,0-4.82.8,12.25,12.25,0,0,0-4.16,2.42,11.66,11.66,0,0,0-2.93,4.13,14.84,14.84,0,0,0-1.09,5.91,14.64,14.64,0,0,0,1.87,7.72,11.67,11.67,0,0,0,5.14,4.64,17.05,17.05,0,0,0,7.37,1.54,22,22,0,0,0,5-.53,8.37,8.37,0,0,0,3.46-1.6,3.37,3.37,0,0,0,1.25-2.66,3.44,3.44,0,0,0-.51-1.81,3.72,3.72,0,0,0-1.3-1.34,17.32,17.32,0,0,1-3.2,1.34,13.68,13.68,0,0,1-4.2.64,8.9,8.9,0,0,1-4.8-1.26A5.2,5.2,0,0,1,294,34.06l14-2.07a4.36,4.36,0,0,0,2.5-1.06,3.25,3.25,0,0,0,.91-2.5,10.83,10.83,0,0,0-1.55-5.81A11.08,11.08,0,0,0,305.49,18.65Zm-12,10.08a6.35,6.35,0,0,1,1.67-4.06,5.36,5.36,0,0,1,4-1.62,4.46,4.46,0,0,1,3.46,1.27,4.56,4.56,0,0,1,1.28,2.77Z"/><path class="cls-1" d="M328.31,17.24a22,22,0,0,0-5.2.61,15.18,15.18,0,0,0-4.23,1.68,6.74,6.74,0,0,0-2,1.84,4.34,4.34,0,0,0-.72,2.53V40.25a3.46,3.46,0,0,0,1,2.88,5.42,5.42,0,0,0,3.28.79,14.82,14.82,0,0,0,2.07-.13,12.15,12.15,0,0,0,1.5-.29V24.86a9.64,9.64,0,0,1,2.71-1,14,14,0,0,1,3.2-.38c.6,0,1.16,0,1.67.08s.95.12,1.31.19a6.38,6.38,0,0,0,.56-1.28,5.2,5.2,0,0,0,.24-1.6Q333.74,17.24,328.31,17.24Z"/><path class="cls-1" d="M356.32,30.9q-2.08-2-6.82-3.06l-2.13-.53a5.24,5.24,0,0,1-2.16-.83,1.52,1.52,0,0,1-.61-1.2,1.66,1.66,0,0,1,1.07-1.57,7.22,7.22,0,0,1,3-.5,15,15,0,0,1,2.64.26,17.09,17.09,0,0,1,2.61.7,9.55,9.55,0,0,1,1.78.79,4,4,0,0,0,1.12-1.33,3.93,3.93,0,0,0,.42-1.86A3.23,3.23,0,0,0,356,19.19a7.94,7.94,0,0,0-3.33-1.55,19.76,19.76,0,0,0-4.66-.5c-3.41,0-6.12.73-8.12,2.21a7,7,0,0,0-3,5.93,6.64,6.64,0,0,0,2.1,5.2,13.73,13.73,0,0,0,6.37,2.79l2.23.53a5.07,5.07,0,0,1,2.29.83,1.83,1.83,0,0,1,.7,1.52q0,2.24-3.89,2.24a13.37,13.37,0,0,1-4.55-.72,22.51,22.51,0,0,1-3.49-1.57,3.66,3.66,0,0,0-1.23,1.3,3.8,3.8,0,0,0-.48,1.94q0,2.5,2.83,3.79A17.51,17.51,0,0,0,347,44.4c3.72,0,6.56-.73,8.52-2.21a7.21,7.21,0,0,0,2.93-6.09A6.9,6.9,0,0,0,356.32,30.9Z"/></svg>