<svg id="Layer_1" data-name="Layer 1" xmlns="http://www.w3.org/2000/svg" viewBox="0 0 150.42 104.17"><defs><style>.cls-1{fill:#38b173;}.cls-2{fill:#f05076;}</style></defs><path class="cls-1" d="M53.48,62.16a6.1,6.1,0,0,1-2,1,9.21,9.21,0,0,1-2.85.4,9.86,9.86,0,0,1-3.5-.54,2.79,2.79,0,0,1-1.81-1.81q-2.28-6.37-3.86-10.61T37,43.29h-.34c-.13,2.82-.25,5.39-.33,7.72s-.16,4.6-.21,6.82S36,62.29,36,64.58s-.22,4.79-.4,7.52c-.49.13-1.15.29-2,.47a11.56,11.56,0,0,1-2.45.27,7.74,7.74,0,0,1-4-.87,3.25,3.25,0,0,1-1.44-3c0-1,.05-2.45.16-4.4s.25-4.18.41-6.71.31-5.21.47-8,.33-5.61.53-8.36.4-5.3.58-7.62A5.64,5.64,0,0,1,30,32.17a9.67,9.67,0,0,1,4.43-.84,10.45,10.45,0,0,1,4.87,1,5.56,5.56,0,0,1,2.65,3.19q1,2.41,2.15,5.6t2.25,6.45q1.11,3.26,2.05,5.88h.33c1.26-3.94,2.54-7.79,3.87-11.55S55,35,56,32.47a8.33,8.33,0,0,1,2.38-.84,15,15,0,0,1,3.06-.3,11.05,11.05,0,0,1,4.67.84,3.49,3.49,0,0,1,2.11,2.52c.18.85.37,2.19.57,4s.42,4,.64,6.35.45,4.9.67,7.52.44,5.17.64,7.66.37,4.71.5,6.68.23,3.54.27,4.7a8.37,8.37,0,0,1-2.11.91,10.91,10.91,0,0,1-2.79.3A7.67,7.67,0,0,1,62.92,72a3.4,3.4,0,0,1-1.65-3.09q-.33-5.23-.53-10t-.31-8.66q-.09-3.93-.23-6.75h-.34q-.87,2.88-2.45,7.28T53.48,62.16Z"/><path class="cls-2" d="M106.75,62.16a6.27,6.27,0,0,1-2,1,9.21,9.21,0,0,1-2.85.4A9.81,9.81,0,0,1,98.42,63a2.81,2.81,0,0,1-1.82-1.81q-2.28-6.37-3.86-10.61t-2.45-7.32H90q-.2,4.23-.33,7.72t-.2,6.82q-.08,3.31-.21,6.75t-.4,7.52c-.49.13-1.15.29-2,.47a11.49,11.49,0,0,1-2.45.27,7.79,7.79,0,0,1-4-.87,3.25,3.25,0,0,1-1.44-3c0-1,0-2.45.17-4.4s.24-4.18.4-6.71.31-5.21.47-8,.34-5.61.54-8.36.39-5.3.57-7.62a5.73,5.73,0,0,1,2.15-1.65,9.67,9.67,0,0,1,4.43-.84,10.42,10.42,0,0,1,4.87,1,5.53,5.53,0,0,1,2.65,3.19q1,2.41,2.15,5.6t2.25,6.45q1.11,3.26,2,5.88H102q1.88-5.91,3.86-11.55t3.39-9.41a8.45,8.45,0,0,1,2.38-.84,15.13,15.13,0,0,1,3.06-.3,11,11,0,0,1,4.67.84,3.49,3.49,0,0,1,2.11,2.52c.18.85.37,2.19.57,4s.42,4,.64,6.35.45,4.9.68,7.52.43,5.17.63,7.66.37,4.71.51,6.68.22,3.54.27,4.7a8.59,8.59,0,0,1-2.12.91,10.91,10.91,0,0,1-2.79.3,7.67,7.67,0,0,1-3.66-.81,3.42,3.42,0,0,1-1.64-3.09q-.35-5.23-.54-10t-.3-8.66q-.11-3.93-.24-6.75h-.33c-.59,1.92-1.4,4.35-2.46,7.28S108.31,57.55,106.75,62.16Z"/></svg>